<svg width="24" height="24" viewBox="0 0 24 24" fill="none" xmlns="http://www.w3.org/2000/svg">
<path d="M17.31 0H5.69C4.76 0 4 0.76 4 1.69V22.31C4 23.24 4.76 24 5.69 24H17.31C18.24 24 19 23.24 19 22.31V1.69C19 0.76 18.24 0 17.31 0ZM11.5 22.9C10.67 22.9 10 22.23 10 21.4C10 20.57 10.67 19.9 11.5 19.9C12.33 19.9 13 20.57 13 21.4C13 22.23 12.33 22.9 11.5 22.9ZM17.5 17.52C17.5 18.09 17.03 18.56 16.46 18.56H6.55C5.98 18.56 5.51 18.09 5.51 17.52V2.61C5.51 2.04 5.98 1.57 6.55 1.57H16.46C17.03 1.57 17.5 2.04 17.5 2.61V17.52Z" fill="#231815"/>
</svg>
