<svg width="24" height="24" viewBox="0 0 24 24" fill="none" xmlns="http://www.w3.org/2000/svg">
<path d="M21.71 14L23.95 6.03C24.06 5.64 23.98 5.21 23.73 4.88C23.48 4.55 23.1 4.36 22.69 4.36H6.3L5.97 3C5.83 2.41 5.3 2 4.7 2H1.31C0.590001 2 0 2.59 0 3.31C0 4.03 0.590001 4.62 1.31 4.62H3.67L6.94 17.9C6.98 18.08 7.07 18.24 7.17 18.38C6.43 18.72 5.92 19.47 5.92 20.34C5.92 21.53 6.89 22.5 8.08 22.5C9.27 22.5 10.24 21.53 10.24 20.34C10.24 19.78 10.03 19.28 9.68 18.89H18.13C17.78 19.27 17.57 19.78 17.57 20.34C17.57 21.53 18.54 22.5 19.73 22.5C20.92 22.5 21.89 21.53 21.89 20.34C21.89 19.59 21.51 18.94 20.94 18.55C21.2 18.31 21.37 17.97 21.37 17.58C21.37 16.86 20.78 16.27 20.06 16.27H9.24L8.91 14.95H20.45C21.04 14.95 21.55 14.56 21.71 13.99V14Z" fill="#231815"/>
</svg>
