<svg width="25" height="24" viewBox="0 0 25 24" fill="none" xmlns="http://www.w3.org/2000/svg">
<path d="M20.64 11.49V22.52C20.64 23.34 19.98 24 19.16 24H1.48C0.66 24 0 23.34 0 22.52V4.84C0 4.02 0.66 3.36 1.48 3.36H12.37C13.19 3.36 13.85 4.02 13.85 4.84C13.85 5.66 13.19 6.32 12.37 6.32H2.96V21.03H17.67V11.48C17.67 10.66 18.33 10 19.15 10C19.97 10 20.63 10.66 20.63 11.48L20.64 11.49ZM22.73 0H16.18C15.67 0 15.2 0.31 15.01 0.78C14.81 1.25 14.92 1.8 15.29 2.16L17.52 4.39L8.11 13.8C7.53 14.38 7.53 15.32 8.11 15.9C8.4 16.19 8.78 16.33 9.16 16.33C9.54 16.33 9.92 16.19 10.21 15.9L19.62 6.49L21.85 8.72C22.09 8.96 22.42 9.09 22.75 9.09C22.91 9.09 23.08 9.06 23.24 8.99C23.71 8.79 24.02 8.33 24.02 7.82V1.27C24.02 0.57 23.45 0 22.75 0H22.73Z" fill="#231815"/>
</svg>
